<?xml version="1.0" encoding="UTF-8" standalone="yes"?><svg xmlns="http://www.w3.org/2000/svg" xmlns:xlink="http://www.w3.org/1999/xlink" height="552px" style="width:342px;height:552px;" version="1.1" viewBox="0 0 342 552" width="342px"><defs><filter height="300%" id="f1" width="300%" x="-1" y="-1"><feGaussianBlur result="blurOut" stdDeviation="2.0"/><feColorMatrix in="blurOut" result="blurOut2" type="matrix" values="0 0 0 0 0 0 0 0 0 0 0 0 0 0 0 0 0 0 .4 0"/><feOffset dx="4.0" dy="4.0" in="blurOut2" result="blurOut3"/><feBlend in="SourceGraphic" in2="blurOut3" mode="normal"/></filter></defs><g><ellipse cx="247" cy="18" fill="#000000" filter="url(#f1)" rx="10" ry="10" style="stroke: none; stroke-width: 1.0;"/><rect fill="#FEFECE" filter="url(#f1)" height="33.9688" rx="12.5" ry="12.5" style="stroke: #A80036; stroke-width: 1.5;" width="104" x="195" y="69"/><text fill="#000000" font-family="sans-serif" font-size="12" lengthAdjust="spacingAndGlyphs" textLength="84" x="205" y="90.1387">Start pipeline</text><rect fill="#FEFECE" filter="url(#f1)" height="33.9688" rx="12.5" ry="12.5" style="stroke: #A80036; stroke-width: 1.5;" width="173" x="160.5" y="144"/><text fill="#000000" font-family="sans-serif" font-size="12" lengthAdjust="spacingAndGlyphs" textLength="153" x="170.5" y="165.1387">Build container image(s)</text><rect fill="#FEFECE" filter="url(#f1)" height="33.9688" rx="12.5" ry="12.5" style="stroke: #A80036; stroke-width: 1.5;" width="80" x="207" y="219"/><text fill="#000000" font-family="sans-serif" font-size="12" lengthAdjust="spacingAndGlyphs" textLength="60" x="217" y="240.1387">Run tests</text><polygon fill="#FEFECE" filter="url(#f1)" points="247,294,259,306,247,318,235,306,247,294" style="stroke: #A80036; stroke-width: 1.5;"/><rect fill="#FEFECE" filter="url(#f1)" height="33.9688" rx="12.5" ry="12.5" style="stroke: #A80036; stroke-width: 1.5;" width="242" x="6" y="375"/><text fill="#000000" font-family="sans-serif" font-size="12" lengthAdjust="spacingAndGlyphs" textLength="222" x="16" y="396.1387">Push container image(s) to registry</text><rect fill="#FEFECE" filter="url(#f1)" height="33.9688" rx="12.5" ry="12.5" style="stroke: #A80036; stroke-width: 1.5;" width="97" x="192.5" y="450"/><text fill="#000000" font-family="sans-serif" font-size="12" lengthAdjust="spacingAndGlyphs" textLength="77" x="202.5" y="471.1387">End pipeline</text><ellipse cx="241" cy="535" fill="none" filter="url(#f1)" rx="10" ry="10" style="stroke: #000000; stroke-width: 1.0;"/><ellipse cx="241.5" cy="535.5" fill="#000000" rx="6" ry="6" style="stroke: none; stroke-width: 1.0;"/><path d="M247,28.177 C247,37.269 247,51.527 247,63.485 " fill="none" style="stroke: #A80036; stroke-width: 1.0;"/><polygon fill="#A80036" points="247,68.791,251,59.791,247,63.791,243,59.791,247,68.791" style="stroke: #A80036; stroke-width: 1.0;"/><path d="M247,103.201 C247,113.692 247,127.463 247,138.818 " fill="none" style="stroke: #A80036; stroke-width: 1.0;"/><polygon fill="#A80036" points="247,143.844,251,134.844,247,138.844,243,134.844,247,143.844" style="stroke: #A80036; stroke-width: 1.0;"/><path d="M247,178.201 C247,188.692 247,202.463 247,213.818 " fill="none" style="stroke: #A80036; stroke-width: 1.0;"/><polygon fill="#A80036" points="247,218.844,251,209.844,247,213.844,243,209.844,247,218.844" style="stroke: #A80036; stroke-width: 1.0;"/><path d="M247,253.115 C247,263.916 247,278.082 247,288.883 " fill="none" style="stroke: #A80036; stroke-width: 1.0;"/><polygon fill="#A80036" points="247,293.885,251,284.885,247,288.885,243,284.885,247,293.885" style="stroke: #A80036; stroke-width: 1.0;"/><text fill="#000000" font-family="sans-serif" font-size="13" lengthAdjust="spacingAndGlyphs" textLength="107" x="120.2719" y="283.7434">Tests succeeded</text><path d="M240.204,311.757 C224.015,323.09 182.431,352.198 154.429,371.8 " fill="none" style="stroke: #A80036; stroke-width: 1.0;"/><polygon fill="#A80036" points="150.057,374.86,159.7239,372.9755,154.1531,371.9926,155.136,366.4218,150.057,374.86" style="stroke: #A80036; stroke-width: 1.0;"/><text fill="#000000" font-family="sans-serif" font-size="13" lengthAdjust="spacingAndGlyphs" textLength="26" x="203" y="351.0669">true</text><path d="M152.018,409.02 C169.419,420.163 192.701,435.072 211.085,446.8438 " fill="none" style="stroke: #A80036; stroke-width: 1.0;"/><polygon fill="#A80036" points="215.647,449.7649,210.2259,441.5422,211.4367,447.068,205.9109,448.2788,215.647,449.7649" style="stroke: #A80036; stroke-width: 1.0;"/><path d="M249.43,315.76 C254.008,333.44 263.016,374.633 258,409 C256.231,421.118 252.453,434.241 248.907,444.838 " fill="none" style="stroke: #A80036; stroke-width: 1.0;"/><polygon fill="#A80036" points="247.194,449.8211,253.9013,442.6091,248.8186,445.0924,246.3353,440.0097,247.194,449.8211" style="stroke: #A80036; stroke-width: 1.0;"/><text fill="#000000" font-family="sans-serif" font-size="13" lengthAdjust="spacingAndGlyphs" textLength="30" x="260" y="396.5669">false</text><path d="M241,484.3146 C241,495.2368 241,509.4683 241,519.8993 " fill="none" style="stroke: #A80036; stroke-width: 1.0;"/><polygon fill="#A80036" points="241,524.97,245,515.97,241,519.97,237,515.97,241,524.97" style="stroke: #A80036; stroke-width: 1.0;"/></g></svg>