<?xml version="1.0" encoding="UTF-8" standalone="no"?>
<!DOCTYPE svg PUBLIC "-//W3C//DTD SVG 1.1//EN"
 "http://www.w3.org/Graphics/SVG/1.1/DTD/svg11.dtd">
<!-- Generated by graphviz version 2.38.0 (20140413.2041)
 -->
<!-- Title: D Pages: 1 -->
<svg width="340pt" height="227pt"
 viewBox="0.00 0.00 340.00 227.00" xmlns="http://www.w3.org/2000/svg" xmlns:xlink="http://www.w3.org/1999/xlink">
<g id="graph0" class="graph" transform="scale(1 1) rotate(0) translate(4 223)">
<title>D</title>
<polygon fill="white" stroke="none" points="-4,4 -4,-223 335.997,-223 335.997,4 -4,4"/>
<g id="clust1" class="cluster"><title>cluster_node</title>
<polygon fill="none" stroke="black" points="169.5,-136 169.5,-211 257.5,-211 257.5,-136 169.5,-136"/>
<text text-anchor="middle" x="213.5" y="-195.8" font-family="Times,serif" font-size="14.00">Node</text>
</g>
<!-- APIServer -->
<g id="node1" class="node"><title>APIServer</title>
<polygon fill="none" stroke="black" points="261,-108 166,-108 166,-104 162,-104 162,-100 166,-100 166,-80 162,-80 162,-76 166,-76 166,-72 261,-72 261,-108"/>
<polyline fill="none" stroke="black" points="166,-104 170,-104 170,-100 166,-100 "/>
<polyline fill="none" stroke="black" points="166,-80 170,-80 170,-76 166,-76 "/>
<text text-anchor="middle" x="213.5" y="-86.3" font-family="Times,serif" font-size="14.00">API Server</text>
</g>
<!-- KVStore -->
<g id="node2" class="node"><title>KVStore</title>
<polygon fill="none" stroke="black" points="240.5,-36 186.5,-36 186.5,-32 182.5,-32 182.5,-28 186.5,-28 186.5,-8 182.5,-8 182.5,-4 186.5,-4 186.5,-0 240.5,-0 240.5,-36"/>
<polyline fill="none" stroke="black" points="186.5,-32 190.5,-32 190.5,-28 186.5,-28 "/>
<polyline fill="none" stroke="black" points="186.5,-8 190.5,-8 190.5,-4 186.5,-4 "/>
<text text-anchor="middle" x="213.5" y="-14.3" font-family="Times,serif" font-size="14.00">etcd</text>
</g>
<!-- APIServer&#45;&gt;KVStore -->
<g id="edge2" class="edge"><title>APIServer&#45;&gt;KVStore</title>
<path fill="none" stroke="black" d="M213.5,-71.6966C213.5,-63.9827 213.5,-54.7125 213.5,-46.1124"/>
<polygon fill="black" stroke="black" points="217,-46.1043 213.5,-36.1043 210,-46.1044 217,-46.1043"/>
</g>
<!-- ControllerManager -->
<g id="node3" class="node"><title>ControllerManager</title>
<polygon fill="none" stroke="black" points="159,-180 1.42109e-14,-180 1.42109e-14,-176 -4,-176 -4,-172 1.42109e-14,-172 1.42109e-14,-152 -4,-152 -4,-148 1.42109e-14,-148 1.42109e-14,-144 159,-144 159,-180"/>
<polyline fill="none" stroke="black" points="1.42109e-14,-176 4,-176 4,-172 1.42109e-14,-172 "/>
<polyline fill="none" stroke="black" points="1.42109e-14,-152 4,-152 4,-148 1.42109e-14,-148 "/>
<text text-anchor="middle" x="79.5" y="-158.3" font-family="Times,serif" font-size="14.00">Controller Manager</text>
</g>
<!-- ControllerManager&#45;&gt;APIServer -->
<g id="edge3" class="edge"><title>ControllerManager&#45;&gt;APIServer</title>
<path fill="none" stroke="black" d="M112.28,-143.876C130.125,-134.554 152.397,-122.919 171.503,-112.939"/>
<polygon fill="black" stroke="black" points="173.351,-115.922 180.594,-108.19 170.11,-109.718 173.351,-115.922"/>
</g>
<!-- Kubelet -->
<g id="node4" class="node"><title>Kubelet</title>
<polygon fill="none" stroke="black" points="249.5,-180 177.5,-180 177.5,-176 173.5,-176 173.5,-172 177.5,-172 177.5,-152 173.5,-152 173.5,-148 177.5,-148 177.5,-144 249.5,-144 249.5,-180"/>
<polyline fill="none" stroke="black" points="177.5,-176 181.5,-176 181.5,-172 177.5,-172 "/>
<polyline fill="none" stroke="black" points="177.5,-152 181.5,-152 181.5,-148 177.5,-148 "/>
<text text-anchor="middle" x="213.5" y="-158.3" font-family="Times,serif" font-size="14.00">Kubelet</text>
</g>
<!-- Kubelet&#45;&gt;APIServer -->
<g id="edge4" class="edge"><title>Kubelet&#45;&gt;APIServer</title>
<path fill="none" stroke="black" d="M213.5,-143.697C213.5,-135.983 213.5,-126.712 213.5,-118.112"/>
<polygon fill="black" stroke="black" points="217,-118.104 213.5,-108.104 210,-118.104 217,-118.104"/>
</g>
<!-- User -->
<g id="node5" class="node"><title>User</title>
<ellipse fill="none" stroke="black" cx="299.5" cy="-162" rx="32.4942" ry="18"/>
<text text-anchor="middle" x="299.5" y="-158.3" font-family="Times,serif" font-size="14.00">User</text>
</g>
<!-- User&#45;&gt;APIServer -->
<g id="edge1" class="edge"><title>User&#45;&gt;APIServer</title>
<path fill="none" stroke="black" d="M281.681,-146.496C270.354,-137.277 255.429,-125.128 242.431,-114.548"/>
<polygon fill="black" stroke="black" points="244.601,-111.802 234.636,-108.204 240.182,-117.231 244.601,-111.802"/>
</g>
</g>
</svg>
