<?xml version="1.0" encoding="UTF-8" standalone="no"?>
<!DOCTYPE svg PUBLIC "-//W3C//DTD SVG 1.1//EN"
 "http://www.w3.org/Graphics/SVG/1.1/DTD/svg11.dtd">
<!-- Generated by graphviz version 2.38.0 (20140413.2041)
 -->
<!-- Title: D Pages: 1 -->
<svg width="564pt" height="227pt"
 viewBox="0.00 0.00 564.00 227.00" xmlns="http://www.w3.org/2000/svg" xmlns:xlink="http://www.w3.org/1999/xlink">
<g id="graph0" class="graph" transform="scale(1 1) rotate(0) translate(4 223)">
<title>D</title>
<polygon fill="white" stroke="none" points="-4,4 -4,-223 559.997,-223 559.997,4 -4,4"/>
<g id="clust1" class="cluster"><title>cluster_node</title>
<polygon fill="none" stroke="black" points="275.5,-136 275.5,-211 481.5,-211 481.5,-136 275.5,-136"/>
<text text-anchor="middle" x="378.5" y="-195.8" font-family="Times,serif" font-size="14.00">Node</text>
</g>
<!-- APIServer -->
<g id="node1" class="node"><title>APIServer</title>
<polygon fill="none" stroke="black" points="381,-108 286,-108 286,-104 282,-104 282,-100 286,-100 286,-80 282,-80 282,-76 286,-76 286,-72 381,-72 381,-108"/>
<polyline fill="none" stroke="black" points="286,-104 290,-104 290,-100 286,-100 "/>
<polyline fill="none" stroke="black" points="286,-80 290,-80 290,-76 286,-76 "/>
<text text-anchor="middle" x="333.5" y="-86.3" font-family="Times,serif" font-size="14.00">API Server</text>
</g>
<!-- KVStore -->
<g id="node2" class="node"><title>KVStore</title>
<polygon fill="none" stroke="black" points="360.5,-36 306.5,-36 306.5,-32 302.5,-32 302.5,-28 306.5,-28 306.5,-8 302.5,-8 302.5,-4 306.5,-4 306.5,-0 360.5,-0 360.5,-36"/>
<polyline fill="none" stroke="black" points="306.5,-32 310.5,-32 310.5,-28 306.5,-28 "/>
<polyline fill="none" stroke="black" points="306.5,-8 310.5,-8 310.5,-4 306.5,-4 "/>
<text text-anchor="middle" x="333.5" y="-14.3" font-family="Times,serif" font-size="14.00">etcd</text>
</g>
<!-- APIServer&#45;&gt;KVStore -->
<g id="edge2" class="edge"><title>APIServer&#45;&gt;KVStore</title>
<path fill="none" stroke="black" d="M333.5,-71.6966C333.5,-63.9827 333.5,-54.7125 333.5,-46.1124"/>
<polygon fill="black" stroke="black" points="337,-46.1043 333.5,-36.1043 330,-46.1044 337,-46.1043"/>
</g>
<!-- ControllerManager -->
<g id="node3" class="node"><title>ControllerManager</title>
<polygon fill="none" stroke="black" points="159,-180 1.42109e-14,-180 1.42109e-14,-176 -4,-176 -4,-172 1.42109e-14,-172 1.42109e-14,-152 -4,-152 -4,-148 1.42109e-14,-148 1.42109e-14,-144 159,-144 159,-180"/>
<polyline fill="none" stroke="black" points="1.42109e-14,-176 4,-176 4,-172 1.42109e-14,-172 "/>
<polyline fill="none" stroke="black" points="1.42109e-14,-152 4,-152 4,-148 1.42109e-14,-148 "/>
<text text-anchor="middle" x="79.5" y="-158.3" font-family="Times,serif" font-size="14.00">Controller Manager</text>
</g>
<!-- ControllerManager&#45;&gt;APIServer -->
<g id="edge3" class="edge"><title>ControllerManager&#45;&gt;APIServer</title>
<path fill="none" stroke="black" d="M139.117,-143.958C148.606,-141.276 158.318,-138.549 167.5,-136 203.457,-126.019 243.869,-115.059 275.816,-106.454"/>
<polygon fill="black" stroke="black" points="277.128,-109.725 285.874,-103.747 275.308,-102.966 277.128,-109.725"/>
</g>
<!-- Scheduler -->
<g id="node4" class="node"><title>Scheduler</title>
<polygon fill="none" stroke="black" points="266,-180 177,-180 177,-176 173,-176 173,-172 177,-172 177,-152 173,-152 173,-148 177,-148 177,-144 266,-144 266,-180"/>
<polyline fill="none" stroke="black" points="177,-176 181,-176 181,-172 177,-172 "/>
<polyline fill="none" stroke="black" points="177,-152 181,-152 181,-148 177,-148 "/>
<text text-anchor="middle" x="221.5" y="-158.3" font-family="Times,serif" font-size="14.00">Scheduler</text>
</g>
<!-- Scheduler&#45;&gt;APIServer -->
<g id="edge5" class="edge"><title>Scheduler&#45;&gt;APIServer</title>
<path fill="none" stroke="black" d="M248.898,-143.876C263.407,-134.808 281.416,-123.552 297.085,-113.759"/>
<polygon fill="black" stroke="black" points="299.371,-116.458 305.996,-108.19 295.661,-110.522 299.371,-116.458"/>
</g>
<!-- Kubelet -->
<g id="node5" class="node"><title>Kubelet</title>
<polygon fill="none" stroke="black" points="473.5,-180 401.5,-180 401.5,-176 397.5,-176 397.5,-172 401.5,-172 401.5,-152 397.5,-152 397.5,-148 401.5,-148 401.5,-144 473.5,-144 473.5,-180"/>
<polyline fill="none" stroke="black" points="401.5,-176 405.5,-176 405.5,-172 401.5,-172 "/>
<polyline fill="none" stroke="black" points="401.5,-152 405.5,-152 405.5,-148 401.5,-148 "/>
<text text-anchor="middle" x="437.5" y="-158.3" font-family="Times,serif" font-size="14.00">Kubelet</text>
</g>
<!-- Kubelet&#45;&gt;APIServer -->
<g id="edge4" class="edge"><title>Kubelet&#45;&gt;APIServer</title>
<path fill="none" stroke="black" d="M412.059,-143.876C398.713,-134.893 382.176,-123.763 367.722,-114.034"/>
<polygon fill="black" stroke="black" points="369.289,-110.87 359.039,-108.19 365.381,-116.677 369.289,-110.87"/>
</g>
<!-- KubeProxy -->
<g id="node6" class="node"><title>KubeProxy</title>
<polygon fill="none" stroke="black" points="383,-180 284,-180 284,-176 280,-176 280,-172 284,-172 284,-152 280,-152 280,-148 284,-148 284,-144 383,-144 383,-180"/>
<polyline fill="none" stroke="black" points="284,-176 288,-176 288,-172 284,-172 "/>
<polyline fill="none" stroke="black" points="284,-152 288,-152 288,-148 284,-148 "/>
<text text-anchor="middle" x="333.5" y="-158.3" font-family="Times,serif" font-size="14.00">Kube Proxy</text>
</g>
<!-- KubeProxy&#45;&gt;APIServer -->
<g id="edge6" class="edge"><title>KubeProxy&#45;&gt;APIServer</title>
<path fill="none" stroke="black" d="M333.5,-143.697C333.5,-135.983 333.5,-126.712 333.5,-118.112"/>
<polygon fill="black" stroke="black" points="337,-118.104 333.5,-108.104 330,-118.104 337,-118.104"/>
</g>
<!-- User -->
<g id="node7" class="node"><title>User</title>
<ellipse fill="none" stroke="black" cx="523.5" cy="-162" rx="32.4942" ry="18"/>
<text text-anchor="middle" x="523.5" y="-158.3" font-family="Times,serif" font-size="14.00">User</text>
</g>
<!-- User&#45;&gt;APIServer -->
<g id="edge1" class="edge"><title>User&#45;&gt;APIServer</title>
<path fill="none" stroke="black" d="M504.808,-147.134C498.85,-143.15 492.089,-139.061 485.5,-136 455.47,-122.05 420.093,-111.273 391.028,-103.768"/>
<polygon fill="black" stroke="black" points="391.582,-100.298 381.03,-101.249 389.872,-107.086 391.582,-100.298"/>
</g>
</g>
</svg>
