<?xml version="1.0" encoding="UTF-8" standalone="no"?>
<!DOCTYPE svg PUBLIC "-//W3C//DTD SVG 1.1//EN"
 "http://www.w3.org/Graphics/SVG/1.1/DTD/svg11.dtd">
<!-- Generated by graphviz version 2.38.0 (20140413.2041)
 -->
<!-- Title: D Pages: 1 -->
<svg width="436pt" height="227pt"
 viewBox="0.00 0.00 436.00 227.00" xmlns="http://www.w3.org/2000/svg" xmlns:xlink="http://www.w3.org/1999/xlink">
<g id="graph0" class="graph" transform="scale(1 1) rotate(0) translate(4 223)">
<title>D</title>
<polygon fill="white" stroke="none" points="-4,4 -4,-223 431.997,-223 431.997,4 -4,4"/>
<g id="clust1" class="cluster"><title>cluster_node1</title>
<polygon fill="none" stroke="black" points="169.5,-136 169.5,-211 257.5,-211 257.5,-136 169.5,-136"/>
<text text-anchor="middle" x="213.5" y="-195.8" font-family="Times,serif" font-size="14.00">Node 1</text>
</g>
<g id="clust2" class="cluster"><title>cluster_node2</title>
<polygon fill="none" stroke="black" points="265.5,-136 265.5,-211 353.5,-211 353.5,-136 265.5,-136"/>
<text text-anchor="middle" x="309.5" y="-195.8" font-family="Times,serif" font-size="14.00">Node 2</text>
</g>
<!-- APIServer -->
<g id="node1" class="node"><title>APIServer</title>
<polygon fill="none" stroke="black" points="309,-108 214,-108 214,-104 210,-104 210,-100 214,-100 214,-80 210,-80 210,-76 214,-76 214,-72 309,-72 309,-108"/>
<polyline fill="none" stroke="black" points="214,-104 218,-104 218,-100 214,-100 "/>
<polyline fill="none" stroke="black" points="214,-80 218,-80 218,-76 214,-76 "/>
<text text-anchor="middle" x="261.5" y="-86.3" font-family="Times,serif" font-size="14.00">API Server</text>
</g>
<!-- KVStore -->
<g id="node2" class="node"><title>KVStore</title>
<polygon fill="none" stroke="black" points="288.5,-36 234.5,-36 234.5,-32 230.5,-32 230.5,-28 234.5,-28 234.5,-8 230.5,-8 230.5,-4 234.5,-4 234.5,-0 288.5,-0 288.5,-36"/>
<polyline fill="none" stroke="black" points="234.5,-32 238.5,-32 238.5,-28 234.5,-28 "/>
<polyline fill="none" stroke="black" points="234.5,-8 238.5,-8 238.5,-4 234.5,-4 "/>
<text text-anchor="middle" x="261.5" y="-14.3" font-family="Times,serif" font-size="14.00">etcd</text>
</g>
<!-- APIServer&#45;&gt;KVStore -->
<g id="edge2" class="edge"><title>APIServer&#45;&gt;KVStore</title>
<path fill="none" stroke="black" d="M261.5,-71.6966C261.5,-63.9827 261.5,-54.7125 261.5,-46.1124"/>
<polygon fill="black" stroke="black" points="265,-46.1043 261.5,-36.1043 258,-46.1044 265,-46.1043"/>
</g>
<!-- ControllerManager -->
<g id="node3" class="node"><title>ControllerManager</title>
<polygon fill="none" stroke="black" points="159,-180 1.42109e-14,-180 1.42109e-14,-176 -4,-176 -4,-172 1.42109e-14,-172 1.42109e-14,-152 -4,-152 -4,-148 1.42109e-14,-148 1.42109e-14,-144 159,-144 159,-180"/>
<polyline fill="none" stroke="black" points="1.42109e-14,-176 4,-176 4,-172 1.42109e-14,-172 "/>
<polyline fill="none" stroke="black" points="1.42109e-14,-152 4,-152 4,-148 1.42109e-14,-148 "/>
<text text-anchor="middle" x="79.5" y="-158.3" font-family="Times,serif" font-size="14.00">Controller Manager</text>
</g>
<!-- ControllerManager&#45;&gt;APIServer -->
<g id="edge3" class="edge"><title>ControllerManager&#45;&gt;APIServer</title>
<path fill="none" stroke="black" d="M124.022,-143.876C149.234,-134.179 180.953,-121.98 207.569,-111.743"/>
<polygon fill="black" stroke="black" points="209.045,-114.925 217.122,-108.068 206.532,-108.391 209.045,-114.925"/>
</g>
<!-- Kubelet1 -->
<g id="node4" class="node"><title>Kubelet1</title>
<polygon fill="none" stroke="black" points="249.5,-180 177.5,-180 177.5,-176 173.5,-176 173.5,-172 177.5,-172 177.5,-152 173.5,-152 173.5,-148 177.5,-148 177.5,-144 249.5,-144 249.5,-180"/>
<polyline fill="none" stroke="black" points="177.5,-176 181.5,-176 181.5,-172 177.5,-172 "/>
<polyline fill="none" stroke="black" points="177.5,-152 181.5,-152 181.5,-148 177.5,-148 "/>
<text text-anchor="middle" x="213.5" y="-158.3" font-family="Times,serif" font-size="14.00">Kubelet</text>
</g>
<!-- Kubelet1&#45;&gt;APIServer -->
<g id="edge4" class="edge"><title>Kubelet1&#45;&gt;APIServer</title>
<path fill="none" stroke="black" d="M225.365,-143.697C231.003,-135.474 237.854,-125.483 244.069,-116.421"/>
<polygon fill="black" stroke="black" points="247.003,-118.331 249.771,-108.104 241.229,-114.372 247.003,-118.331"/>
</g>
<!-- Kubelet2 -->
<g id="node5" class="node"><title>Kubelet2</title>
<polygon fill="none" stroke="black" points="345.5,-180 273.5,-180 273.5,-176 269.5,-176 269.5,-172 273.5,-172 273.5,-152 269.5,-152 269.5,-148 273.5,-148 273.5,-144 345.5,-144 345.5,-180"/>
<polyline fill="none" stroke="black" points="273.5,-176 277.5,-176 277.5,-172 273.5,-172 "/>
<polyline fill="none" stroke="black" points="273.5,-152 277.5,-152 277.5,-148 273.5,-148 "/>
<text text-anchor="middle" x="309.5" y="-158.3" font-family="Times,serif" font-size="14.00">Kubelet</text>
</g>
<!-- Kubelet2&#45;&gt;APIServer -->
<g id="edge5" class="edge"><title>Kubelet2&#45;&gt;APIServer</title>
<path fill="none" stroke="black" d="M297.635,-143.697C291.997,-135.474 285.146,-125.483 278.931,-116.421"/>
<polygon fill="black" stroke="black" points="281.771,-114.372 273.229,-108.104 275.997,-118.331 281.771,-114.372"/>
</g>
<!-- User -->
<g id="node6" class="node"><title>User</title>
<ellipse fill="none" stroke="black" cx="395.5" cy="-162" rx="32.4942" ry="18"/>
<text text-anchor="middle" x="395.5" y="-158.3" font-family="Times,serif" font-size="14.00">User</text>
</g>
<!-- User&#45;&gt;APIServer -->
<g id="edge1" class="edge"><title>User&#45;&gt;APIServer</title>
<path fill="none" stroke="black" d="M376.111,-147.475C370.24,-143.59 363.702,-139.47 357.5,-136 342.601,-127.664 325.897,-119.461 310.651,-112.39"/>
<polygon fill="black" stroke="black" points="311.925,-109.124 301.376,-108.142 309.01,-115.488 311.925,-109.124"/>
</g>
</g>
</svg>
