<?xml version="1.0" encoding="UTF-8" standalone="no"?>
<!DOCTYPE svg PUBLIC "-//W3C//DTD SVG 1.1//EN"
 "http://www.w3.org/Graphics/SVG/1.1/DTD/svg11.dtd">
<!-- Generated by graphviz version 2.38.0 (20140413.2041)
 -->
<!-- Title: D Pages: 1 -->
<svg width="137pt" height="188pt"
 viewBox="0.00 0.00 137.00 188.00" xmlns="http://www.w3.org/2000/svg" xmlns:xlink="http://www.w3.org/1999/xlink">
<g id="graph0" class="graph" transform="scale(1 1) rotate(0) translate(4 184)">
<title>D</title>
<polygon fill="white" stroke="none" points="-4,4 -4,-184 133,-184 133,4 -4,4"/>
<!-- APIServer -->
<g id="node1" class="node"><title>APIServer</title>
<polygon fill="none" stroke="black" points="112,-108 17,-108 17,-104 13,-104 13,-100 17,-100 17,-80 13,-80 13,-76 17,-76 17,-72 112,-72 112,-108"/>
<polyline fill="none" stroke="black" points="17,-104 21,-104 21,-100 17,-100 "/>
<polyline fill="none" stroke="black" points="17,-80 21,-80 21,-76 17,-76 "/>
<text text-anchor="middle" x="64.5" y="-86.3" font-family="Times,serif" font-size="14.00">API Server</text>
</g>
<!-- KVStore -->
<g id="node2" class="node"><title>KVStore</title>
<polygon fill="none" stroke="black" points="129,-36 0,-36 0,-32 -4,-32 -4,-28 0,-28 0,-8 -4,-8 -4,-4 0,-4 0,-0 129,-0 129,-36"/>
<polyline fill="none" stroke="black" points="0,-32 4,-32 4,-28 0,-28 "/>
<polyline fill="none" stroke="black" points="0,-8 4,-8 4,-4 0,-4 "/>
<text text-anchor="middle" x="64.5" y="-14.3" font-family="Times,serif" font-size="14.00">Key Value Store</text>
</g>
<!-- APIServer&#45;&gt;KVStore -->
<g id="edge2" class="edge"><title>APIServer&#45;&gt;KVStore</title>
<path fill="none" stroke="black" d="M64.5,-71.6966C64.5,-63.9827 64.5,-54.7125 64.5,-46.1124"/>
<polygon fill="black" stroke="black" points="68.0001,-46.1043 64.5,-36.1043 61.0001,-46.1044 68.0001,-46.1043"/>
</g>
<!-- User -->
<g id="node3" class="node"><title>User</title>
<ellipse fill="none" stroke="black" cx="64.5" cy="-162" rx="32.4942" ry="18"/>
<text text-anchor="middle" x="64.5" y="-158.3" font-family="Times,serif" font-size="14.00">User</text>
</g>
<!-- User&#45;&gt;APIServer -->
<g id="edge1" class="edge"><title>User&#45;&gt;APIServer</title>
<path fill="none" stroke="black" d="M64.5,-143.697C64.5,-135.983 64.5,-126.712 64.5,-118.112"/>
<polygon fill="black" stroke="black" points="68.0001,-118.104 64.5,-108.104 61.0001,-118.104 68.0001,-118.104"/>
</g>
</g>
</svg>
