<?xml version="1.0" encoding="UTF-8" standalone="no"?>
<!DOCTYPE svg PUBLIC "-//W3C//DTD SVG 1.1//EN"
 "http://www.w3.org/Graphics/SVG/1.1/DTD/svg11.dtd">
<!-- Generated by graphviz version 2.38.0 (20140413.2041)
 -->
<!-- Title: D Pages: 1 -->
<svg width="543pt" height="227pt"
 viewBox="0.00 0.00 543.00 227.00" xmlns="http://www.w3.org/2000/svg" xmlns:xlink="http://www.w3.org/1999/xlink">
<g id="graph0" class="graph" transform="scale(1 1) rotate(0) translate(4 223)">
<title>D</title>
<polygon fill="white" stroke="none" points="-4,4 -4,-223 538.997,-223 538.997,4 -4,4"/>
<g id="clust1" class="cluster"><title>cluster_node1</title>
<polygon fill="none" stroke="black" points="276.5,-136 276.5,-211 364.5,-211 364.5,-136 276.5,-136"/>
<text text-anchor="middle" x="320.5" y="-195.8" font-family="Times,serif" font-size="14.00">Node 1</text>
</g>
<g id="clust2" class="cluster"><title>cluster_node2</title>
<polygon fill="none" stroke="black" points="372.5,-136 372.5,-211 460.5,-211 460.5,-136 372.5,-136"/>
<text text-anchor="middle" x="416.5" y="-195.8" font-family="Times,serif" font-size="14.00">Node 2</text>
</g>
<!-- APIServer -->
<g id="node1" class="node"><title>APIServer</title>
<polygon fill="none" stroke="black" points="368,-108 273,-108 273,-104 269,-104 269,-100 273,-100 273,-80 269,-80 269,-76 273,-76 273,-72 368,-72 368,-108"/>
<polyline fill="none" stroke="black" points="273,-104 277,-104 277,-100 273,-100 "/>
<polyline fill="none" stroke="black" points="273,-80 277,-80 277,-76 273,-76 "/>
<text text-anchor="middle" x="320.5" y="-86.3" font-family="Times,serif" font-size="14.00">API Server</text>
</g>
<!-- KVStore -->
<g id="node2" class="node"><title>KVStore</title>
<polygon fill="none" stroke="black" points="347.5,-36 293.5,-36 293.5,-32 289.5,-32 289.5,-28 293.5,-28 293.5,-8 289.5,-8 289.5,-4 293.5,-4 293.5,-0 347.5,-0 347.5,-36"/>
<polyline fill="none" stroke="black" points="293.5,-32 297.5,-32 297.5,-28 293.5,-28 "/>
<polyline fill="none" stroke="black" points="293.5,-8 297.5,-8 297.5,-4 293.5,-4 "/>
<text text-anchor="middle" x="320.5" y="-14.3" font-family="Times,serif" font-size="14.00">etcd</text>
</g>
<!-- APIServer&#45;&gt;KVStore -->
<g id="edge2" class="edge"><title>APIServer&#45;&gt;KVStore</title>
<path fill="none" stroke="black" d="M320.5,-71.6966C320.5,-63.9827 320.5,-54.7125 320.5,-46.1124"/>
<polygon fill="black" stroke="black" points="324,-46.1043 320.5,-36.1043 317,-46.1044 324,-46.1043"/>
</g>
<!-- ControllerManager -->
<g id="node3" class="node"><title>ControllerManager</title>
<polygon fill="none" stroke="black" points="159,-180 1.42109e-14,-180 1.42109e-14,-176 -4,-176 -4,-172 1.42109e-14,-172 1.42109e-14,-152 -4,-152 -4,-148 1.42109e-14,-148 1.42109e-14,-144 159,-144 159,-180"/>
<polyline fill="none" stroke="black" points="1.42109e-14,-176 4,-176 4,-172 1.42109e-14,-172 "/>
<polyline fill="none" stroke="black" points="1.42109e-14,-152 4,-152 4,-148 1.42109e-14,-148 "/>
<text text-anchor="middle" x="79.5" y="-158.3" font-family="Times,serif" font-size="14.00">Controller Manager</text>
</g>
<!-- ControllerManager&#45;&gt;APIServer -->
<g id="edge3" class="edge"><title>ControllerManager&#45;&gt;APIServer</title>
<path fill="none" stroke="black" d="M138.147,-143.966C176.133,-132.932 225.371,-118.631 263.106,-107.67"/>
<polygon fill="black" stroke="black" points="264.304,-110.967 272.931,-104.817 262.351,-104.245 264.304,-110.967"/>
</g>
<!-- Scheduler -->
<g id="node4" class="node"><title>Scheduler</title>
<polygon fill="none" stroke="black" points="266,-180 177,-180 177,-176 173,-176 173,-172 177,-172 177,-152 173,-152 173,-148 177,-148 177,-144 266,-144 266,-180"/>
<polyline fill="none" stroke="black" points="177,-176 181,-176 181,-172 177,-172 "/>
<polyline fill="none" stroke="black" points="177,-152 181,-152 181,-148 177,-148 "/>
<text text-anchor="middle" x="221.5" y="-158.3" font-family="Times,serif" font-size="14.00">Scheduler</text>
</g>
<!-- Scheduler&#45;&gt;APIServer -->
<g id="edge6" class="edge"><title>Scheduler&#45;&gt;APIServer</title>
<path fill="none" stroke="black" d="M245.718,-143.876C258.423,-134.893 274.164,-123.763 287.923,-114.034"/>
<polygon fill="black" stroke="black" points="290.044,-116.821 296.189,-108.19 286.003,-111.105 290.044,-116.821"/>
</g>
<!-- Kubelet1 -->
<g id="node5" class="node"><title>Kubelet1</title>
<polygon fill="none" stroke="black" points="356.5,-180 284.5,-180 284.5,-176 280.5,-176 280.5,-172 284.5,-172 284.5,-152 280.5,-152 280.5,-148 284.5,-148 284.5,-144 356.5,-144 356.5,-180"/>
<polyline fill="none" stroke="black" points="284.5,-176 288.5,-176 288.5,-172 284.5,-172 "/>
<polyline fill="none" stroke="black" points="284.5,-152 288.5,-152 288.5,-148 284.5,-148 "/>
<text text-anchor="middle" x="320.5" y="-158.3" font-family="Times,serif" font-size="14.00">Kubelet</text>
</g>
<!-- Kubelet1&#45;&gt;APIServer -->
<g id="edge4" class="edge"><title>Kubelet1&#45;&gt;APIServer</title>
<path fill="none" stroke="black" d="M320.5,-143.697C320.5,-135.983 320.5,-126.712 320.5,-118.112"/>
<polygon fill="black" stroke="black" points="324,-118.104 320.5,-108.104 317,-118.104 324,-118.104"/>
</g>
<!-- Kubelet2 -->
<g id="node6" class="node"><title>Kubelet2</title>
<polygon fill="none" stroke="black" points="452.5,-180 380.5,-180 380.5,-176 376.5,-176 376.5,-172 380.5,-172 380.5,-152 376.5,-152 376.5,-148 380.5,-148 380.5,-144 452.5,-144 452.5,-180"/>
<polyline fill="none" stroke="black" points="380.5,-176 384.5,-176 384.5,-172 380.5,-172 "/>
<polyline fill="none" stroke="black" points="380.5,-152 384.5,-152 384.5,-148 380.5,-148 "/>
<text text-anchor="middle" x="416.5" y="-158.3" font-family="Times,serif" font-size="14.00">Kubelet</text>
</g>
<!-- Kubelet2&#45;&gt;APIServer -->
<g id="edge5" class="edge"><title>Kubelet2&#45;&gt;APIServer</title>
<path fill="none" stroke="black" d="M392.77,-143.697C380.563,-134.796 365.515,-123.823 352.316,-114.199"/>
<polygon fill="black" stroke="black" points="354.1,-111.168 343.957,-108.104 349.975,-116.824 354.1,-111.168"/>
</g>
<!-- User -->
<g id="node7" class="node"><title>User</title>
<ellipse fill="none" stroke="black" cx="502.5" cy="-162" rx="32.4942" ry="18"/>
<text text-anchor="middle" x="502.5" y="-158.3" font-family="Times,serif" font-size="14.00">User</text>
</g>
<!-- User&#45;&gt;APIServer -->
<g id="edge1" class="edge"><title>User&#45;&gt;APIServer</title>
<path fill="none" stroke="black" d="M483.779,-147.195C477.82,-143.214 471.066,-139.11 464.5,-136 436.988,-122.967 404.776,-112.493 377.802,-104.94"/>
<polygon fill="black" stroke="black" points="378.689,-101.554 368.119,-102.291 376.841,-108.306 378.689,-101.554"/>
</g>
</g>
</svg>
