<?xml version="1.0" encoding="UTF-8" standalone="no"?>
<!DOCTYPE svg PUBLIC "-//W3C//DTD SVG 1.1//EN"
 "http://www.w3.org/Graphics/SVG/1.1/DTD/svg11.dtd">
<!-- Generated by graphviz version 2.38.0 (20140413.2041)
 -->
<!-- Title: D Pages: 1 -->
<svg width="250pt" height="188pt"
 viewBox="0.00 0.00 250.00 188.00" xmlns="http://www.w3.org/2000/svg" xmlns:xlink="http://www.w3.org/1999/xlink">
<g id="graph0" class="graph" transform="scale(1 1) rotate(0) translate(4 184)">
<title>D</title>
<polygon fill="white" stroke="none" points="-4,4 -4,-184 245.997,-184 245.997,4 -4,4"/>
<!-- APIServer -->
<g id="node1" class="node"><title>APIServer</title>
<polygon fill="none" stroke="black" points="192,-108 97,-108 97,-104 93,-104 93,-100 97,-100 97,-80 93,-80 93,-76 97,-76 97,-72 192,-72 192,-108"/>
<polyline fill="none" stroke="black" points="97,-104 101,-104 101,-100 97,-100 "/>
<polyline fill="none" stroke="black" points="97,-80 101,-80 101,-76 97,-76 "/>
<text text-anchor="middle" x="144.5" y="-86.3" font-family="Times,serif" font-size="14.00">API Server</text>
</g>
<!-- KVStore -->
<g id="node2" class="node"><title>KVStore</title>
<polygon fill="none" stroke="black" points="171.5,-36 117.5,-36 117.5,-32 113.5,-32 113.5,-28 117.5,-28 117.5,-8 113.5,-8 113.5,-4 117.5,-4 117.5,-0 171.5,-0 171.5,-36"/>
<polyline fill="none" stroke="black" points="117.5,-32 121.5,-32 121.5,-28 117.5,-28 "/>
<polyline fill="none" stroke="black" points="117.5,-8 121.5,-8 121.5,-4 117.5,-4 "/>
<text text-anchor="middle" x="144.5" y="-14.3" font-family="Times,serif" font-size="14.00">etcd</text>
</g>
<!-- APIServer&#45;&gt;KVStore -->
<g id="edge2" class="edge"><title>APIServer&#45;&gt;KVStore</title>
<path fill="none" stroke="black" d="M144.5,-71.6966C144.5,-63.9827 144.5,-54.7125 144.5,-46.1124"/>
<polygon fill="black" stroke="black" points="148,-46.1043 144.5,-36.1043 141,-46.1044 148,-46.1043"/>
</g>
<!-- ControllerManager -->
<g id="node3" class="node"><title>ControllerManager</title>
<polygon fill="none" stroke="black" points="159,-180 1.42109e-14,-180 1.42109e-14,-176 -4,-176 -4,-172 1.42109e-14,-172 1.42109e-14,-152 -4,-152 -4,-148 1.42109e-14,-148 1.42109e-14,-144 159,-144 159,-180"/>
<polyline fill="none" stroke="black" points="1.42109e-14,-176 4,-176 4,-172 1.42109e-14,-172 "/>
<polyline fill="none" stroke="black" points="1.42109e-14,-152 4,-152 4,-148 1.42109e-14,-148 "/>
<text text-anchor="middle" x="79.5" y="-158.3" font-family="Times,serif" font-size="14.00">Controller Manager</text>
</g>
<!-- ControllerManager&#45;&gt;APIServer -->
<g id="edge3" class="edge"><title>ControllerManager&#45;&gt;APIServer</title>
<path fill="none" stroke="black" d="M95.5674,-143.697C103.439,-135.22 113.055,-124.864 121.673,-115.583"/>
<polygon fill="black" stroke="black" points="124.378,-117.814 128.617,-108.104 119.248,-113.051 124.378,-117.814"/>
</g>
<!-- User -->
<g id="node4" class="node"><title>User</title>
<ellipse fill="none" stroke="black" cx="209.5" cy="-162" rx="32.4942" ry="18"/>
<text text-anchor="middle" x="209.5" y="-158.3" font-family="Times,serif" font-size="14.00">User</text>
</g>
<!-- User&#45;&gt;APIServer -->
<g id="edge1" class="edge"><title>User&#45;&gt;APIServer</title>
<path fill="none" stroke="black" d="M195.074,-145.465C187.047,-136.82 176.863,-125.852 167.74,-116.028"/>
<polygon fill="black" stroke="black" points="170.083,-113.407 160.714,-108.461 164.953,-118.17 170.083,-113.407"/>
</g>
</g>
</svg>
