<?xml version="1.0" encoding="UTF-8" standalone="no"?>
<!DOCTYPE svg PUBLIC "-//W3C//DTD SVG 1.1//EN"
 "http://www.w3.org/Graphics/SVG/1.1/DTD/svg11.dtd">
<!-- Generated by graphviz version 2.38.0 (20140413.2041)
 -->
<!-- Title: D Pages: 1 -->
<svg width="778pt" height="227pt"
 viewBox="0.00 0.00 778.00 227.00" xmlns="http://www.w3.org/2000/svg" xmlns:xlink="http://www.w3.org/1999/xlink">
<g id="graph0" class="graph" transform="scale(1 1) rotate(0) translate(4 223)">
<title>D</title>
<polygon fill="white" stroke="none" points="-4,4 -4,-223 773.997,-223 773.997,4 -4,4"/>
<g id="clust1" class="cluster"><title>cluster_node1</title>
<polygon fill="none" stroke="black" points="275.5,-136 275.5,-211 481.5,-211 481.5,-136 275.5,-136"/>
<text text-anchor="middle" x="378.5" y="-195.8" font-family="Times,serif" font-size="14.00">Node 1</text>
</g>
<g id="clust2" class="cluster"><title>cluster_node2</title>
<polygon fill="none" stroke="black" points="489.5,-136 489.5,-211 695.5,-211 695.5,-136 489.5,-136"/>
<text text-anchor="middle" x="592.5" y="-195.8" font-family="Times,serif" font-size="14.00">Node 2</text>
</g>
<!-- APIServer -->
<g id="node1" class="node"><title>APIServer</title>
<polygon fill="none" stroke="black" points="485,-108 390,-108 390,-104 386,-104 386,-100 390,-100 390,-80 386,-80 386,-76 390,-76 390,-72 485,-72 485,-108"/>
<polyline fill="none" stroke="black" points="390,-104 394,-104 394,-100 390,-100 "/>
<polyline fill="none" stroke="black" points="390,-80 394,-80 394,-76 390,-76 "/>
<text text-anchor="middle" x="437.5" y="-86.3" font-family="Times,serif" font-size="14.00">API Server</text>
</g>
<!-- KVStore -->
<g id="node2" class="node"><title>KVStore</title>
<polygon fill="none" stroke="black" points="464.5,-36 410.5,-36 410.5,-32 406.5,-32 406.5,-28 410.5,-28 410.5,-8 406.5,-8 406.5,-4 410.5,-4 410.5,-0 464.5,-0 464.5,-36"/>
<polyline fill="none" stroke="black" points="410.5,-32 414.5,-32 414.5,-28 410.5,-28 "/>
<polyline fill="none" stroke="black" points="410.5,-8 414.5,-8 414.5,-4 410.5,-4 "/>
<text text-anchor="middle" x="437.5" y="-14.3" font-family="Times,serif" font-size="14.00">etcd</text>
</g>
<!-- APIServer&#45;&gt;KVStore -->
<g id="edge2" class="edge"><title>APIServer&#45;&gt;KVStore</title>
<path fill="none" stroke="black" d="M437.5,-71.6966C437.5,-63.9827 437.5,-54.7125 437.5,-46.1124"/>
<polygon fill="black" stroke="black" points="441,-46.1043 437.5,-36.1043 434,-46.1044 441,-46.1043"/>
</g>
<!-- ControllerManager -->
<g id="node3" class="node"><title>ControllerManager</title>
<polygon fill="none" stroke="black" points="159,-180 1.42109e-14,-180 1.42109e-14,-176 -4,-176 -4,-172 1.42109e-14,-172 1.42109e-14,-152 -4,-152 -4,-148 1.42109e-14,-148 1.42109e-14,-144 159,-144 159,-180"/>
<polyline fill="none" stroke="black" points="1.42109e-14,-176 4,-176 4,-172 1.42109e-14,-172 "/>
<polyline fill="none" stroke="black" points="1.42109e-14,-152 4,-152 4,-148 1.42109e-14,-148 "/>
<text text-anchor="middle" x="79.5" y="-158.3" font-family="Times,serif" font-size="14.00">Controller Manager</text>
</g>
<!-- ControllerManager&#45;&gt;APIServer -->
<g id="edge3" class="edge"><title>ControllerManager&#45;&gt;APIServer</title>
<path fill="none" stroke="black" d="M136.067,-143.925C146.469,-141.072 157.273,-138.298 167.5,-136 240.025,-119.708 324.723,-106.525 379.643,-98.7342"/>
<polygon fill="black" stroke="black" points="380.463,-102.153 389.879,-97.2957 379.489,-95.2215 380.463,-102.153"/>
</g>
<!-- Scheduler -->
<g id="node4" class="node"><title>Scheduler</title>
<polygon fill="none" stroke="black" points="266,-180 177,-180 177,-176 173,-176 173,-172 177,-172 177,-152 173,-152 173,-148 177,-148 177,-144 266,-144 266,-180"/>
<polyline fill="none" stroke="black" points="177,-176 181,-176 181,-172 177,-172 "/>
<polyline fill="none" stroke="black" points="177,-152 181,-152 181,-148 177,-148 "/>
<text text-anchor="middle" x="221.5" y="-158.3" font-family="Times,serif" font-size="14.00">Scheduler</text>
</g>
<!-- Scheduler&#45;&gt;APIServer -->
<g id="edge6" class="edge"><title>Scheduler&#45;&gt;APIServer</title>
<path fill="none" stroke="black" d="M253.353,-143.899C259.292,-141.048 265.515,-138.282 271.5,-136 306.773,-122.554 347.691,-111.414 380.076,-103.582"/>
<polygon fill="black" stroke="black" points="380.92,-106.979 389.837,-101.258 379.299,-100.169 380.92,-106.979"/>
</g>
<!-- Kubelet1 -->
<g id="node5" class="node"><title>Kubelet1</title>
<polygon fill="none" stroke="black" points="473.5,-180 401.5,-180 401.5,-176 397.5,-176 397.5,-172 401.5,-172 401.5,-152 397.5,-152 397.5,-148 401.5,-148 401.5,-144 473.5,-144 473.5,-180"/>
<polyline fill="none" stroke="black" points="401.5,-176 405.5,-176 405.5,-172 401.5,-172 "/>
<polyline fill="none" stroke="black" points="401.5,-152 405.5,-152 405.5,-148 401.5,-148 "/>
<text text-anchor="middle" x="437.5" y="-158.3" font-family="Times,serif" font-size="14.00">Kubelet</text>
</g>
<!-- Kubelet1&#45;&gt;APIServer -->
<g id="edge4" class="edge"><title>Kubelet1&#45;&gt;APIServer</title>
<path fill="none" stroke="black" d="M437.5,-143.697C437.5,-135.983 437.5,-126.712 437.5,-118.112"/>
<polygon fill="black" stroke="black" points="441,-118.104 437.5,-108.104 434,-118.104 441,-118.104"/>
</g>
<!-- KubeProxy1 -->
<g id="node6" class="node"><title>KubeProxy1</title>
<polygon fill="none" stroke="black" points="383,-180 284,-180 284,-176 280,-176 280,-172 284,-172 284,-152 280,-152 280,-148 284,-148 284,-144 383,-144 383,-180"/>
<polyline fill="none" stroke="black" points="284,-176 288,-176 288,-172 284,-172 "/>
<polyline fill="none" stroke="black" points="284,-152 288,-152 288,-148 284,-148 "/>
<text text-anchor="middle" x="333.5" y="-158.3" font-family="Times,serif" font-size="14.00">Kube Proxy</text>
</g>
<!-- KubeProxy1&#45;&gt;APIServer -->
<g id="edge7" class="edge"><title>KubeProxy1&#45;&gt;APIServer</title>
<path fill="none" stroke="black" d="M358.941,-143.876C372.287,-134.893 388.824,-123.763 403.278,-114.034"/>
<polygon fill="black" stroke="black" points="405.619,-116.677 411.961,-108.19 401.711,-110.87 405.619,-116.677"/>
</g>
<!-- Kubelet2 -->
<g id="node7" class="node"><title>Kubelet2</title>
<polygon fill="none" stroke="black" points="687.5,-180 615.5,-180 615.5,-176 611.5,-176 611.5,-172 615.5,-172 615.5,-152 611.5,-152 611.5,-148 615.5,-148 615.5,-144 687.5,-144 687.5,-180"/>
<polyline fill="none" stroke="black" points="615.5,-176 619.5,-176 619.5,-172 615.5,-172 "/>
<polyline fill="none" stroke="black" points="615.5,-152 619.5,-152 619.5,-148 615.5,-148 "/>
<text text-anchor="middle" x="651.5" y="-158.3" font-family="Times,serif" font-size="14.00">Kubelet</text>
</g>
<!-- Kubelet2&#45;&gt;APIServer -->
<g id="edge5" class="edge"><title>Kubelet2&#45;&gt;APIServer</title>
<path fill="none" stroke="black" d="M622.97,-143.777C617.61,-140.939 611.97,-138.208 606.5,-136 570.523,-121.477 528.356,-110.241 495.142,-102.628"/>
<polygon fill="black" stroke="black" points="495.662,-99.158 485.138,-100.383 494.128,-105.988 495.662,-99.158"/>
</g>
<!-- KubeProxy2 -->
<g id="node8" class="node"><title>KubeProxy2</title>
<polygon fill="none" stroke="black" points="597,-180 498,-180 498,-176 494,-176 494,-172 498,-172 498,-152 494,-152 494,-148 498,-148 498,-144 597,-144 597,-180"/>
<polyline fill="none" stroke="black" points="498,-176 502,-176 502,-172 498,-172 "/>
<polyline fill="none" stroke="black" points="498,-152 502,-152 502,-148 498,-148 "/>
<text text-anchor="middle" x="547.5" y="-158.3" font-family="Times,serif" font-size="14.00">Kube Proxy</text>
</g>
<!-- KubeProxy2&#45;&gt;APIServer -->
<g id="edge8" class="edge"><title>KubeProxy2&#45;&gt;APIServer</title>
<path fill="none" stroke="black" d="M520.591,-143.876C506.342,-134.808 488.654,-123.552 473.264,-113.759"/>
<polygon fill="black" stroke="black" points="474.828,-110.606 464.512,-108.19 471.07,-116.511 474.828,-110.606"/>
</g>
<!-- User -->
<g id="node9" class="node"><title>User</title>
<ellipse fill="none" stroke="black" cx="737.5" cy="-162" rx="32.4942" ry="18"/>
<text text-anchor="middle" x="737.5" y="-158.3" font-family="Times,serif" font-size="14.00">User</text>
</g>
<!-- User&#45;&gt;APIServer -->
<g id="edge1" class="edge"><title>User&#45;&gt;APIServer</title>
<path fill="none" stroke="black" d="M719.403,-146.911C713.362,-142.82 706.405,-138.726 699.5,-136 632.554,-109.571 549.945,-98.6425 495.599,-94.1371"/>
<polygon fill="black" stroke="black" points="495.698,-90.6343 485.455,-93.3437 495.152,-97.6129 495.698,-90.6343"/>
</g>
</g>
</svg>
