<?xml version="1.0" encoding="UTF-8" standalone="no"?>
<!DOCTYPE svg PUBLIC "-//W3C//DTD SVG 1.1//EN"
 "http://www.w3.org/Graphics/SVG/1.1/DTD/svg11.dtd">
<!-- Generated by graphviz version 2.38.0 (20140413.2041)
 -->
<!-- Title: D Pages: 1 -->
<svg width="174pt" height="213pt"
 viewBox="0.00 0.00 174.00 213.00" xmlns="http://www.w3.org/2000/svg" xmlns:xlink="http://www.w3.org/1999/xlink">
<g id="graph0" class="graph" transform="scale(1 1) rotate(0) translate(4 209)">
<title>D</title>
<polygon fill="white" stroke="none" points="-4,4 -4,-209 170,-209 170,4 -4,4"/>
<g id="clust1" class="cluster"><title>cluster_p</title>
<polygon fill="none" stroke="black" points="8,-8 8,-197 158,-197 158,-8 8,-8"/>
<text text-anchor="middle" x="83" y="-181.8" font-family="Times,serif" font-size="14.00">Physical Machine</text>
</g>
<g id="clust2" class="cluster"><title>cluster_v</title>
<polygon fill="none" stroke="black" points="16,-80 16,-166 150,-166 150,-80 16,-80"/>
<text text-anchor="middle" x="83" y="-150.8" font-family="Times,serif" font-size="14.00">Container</text>
</g>
<!-- Kernel -->
<g id="node1" class="node"><title>Kernel</title>
<polygon fill="none" stroke="black" points="114.5,-52 51.5,-52 51.5,-16 114.5,-16 114.5,-52"/>
<text text-anchor="middle" x="83" y="-30.3" font-family="Times,serif" font-size="14.00">Kernel</text>
</g>
<!-- Application -->
<g id="node2" class="node"><title>Application</title>
<polygon fill="none" stroke="black" points="24.5,-88.5 24.5,-134.5 141.5,-134.5 141.5,-88.5 24.5,-88.5"/>
<text text-anchor="middle" x="83" y="-119.3" font-family="Times,serif" font-size="14.00">Dependencies</text>
<polyline fill="none" stroke="black" points="24.5,-111.5 141.5,-111.5 "/>
<text text-anchor="middle" x="83" y="-96.3" font-family="Times,serif" font-size="14.00">Application</text>
</g>
<!-- Application&#45;&gt;Kernel -->
<g id="edge1" class="edge"><title>Application&#45;&gt;Kernel</title>
<path fill="none" stroke="black" d="M83,-88.2559C83,-80.1817 83,-70.962 83,-62.4888"/>
<polygon fill="black" stroke="black" points="86.5001,-62.2975 83,-52.2976 79.5001,-62.2976 86.5001,-62.2975"/>
</g>
</g>
</svg>
