<?xml version="1.0" encoding="UTF-8" standalone="no"?>
<!DOCTYPE svg PUBLIC "-//W3C//DTD SVG 1.1//EN"
 "http://www.w3.org/Graphics/SVG/1.1/DTD/svg11.dtd">
<!-- Generated by graphviz version 2.38.0 (20140413.2041)
 -->
<!-- Title: D Pages: 1 -->
<svg width="167pt" height="182pt"
 viewBox="0.00 0.00 167.00 182.00" xmlns="http://www.w3.org/2000/svg" xmlns:xlink="http://www.w3.org/1999/xlink">
<g id="graph0" class="graph" transform="scale(1 1) rotate(0) translate(4 178)">
<title>D</title>
<polygon fill="white" stroke="none" points="-4,4 -4,-178 163,-178 163,4 -4,4"/>
<g id="clust1" class="cluster"><title>cluster_p</title>
<polygon fill="none" stroke="black" points="8,-8 8,-166 151,-166 151,-8 8,-8"/>
<text text-anchor="middle" x="79.5" y="-150.8" font-family="Times,serif" font-size="14.00">Physical Machine</text>
</g>
<!-- Kernel -->
<g id="node1" class="node"><title>Kernel</title>
<polygon fill="none" stroke="black" points="110.5,-52 47.5,-52 47.5,-16 110.5,-16 110.5,-52"/>
<text text-anchor="middle" x="79" y="-30.3" font-family="Times,serif" font-size="14.00">Kernel</text>
</g>
<!-- Application -->
<g id="node2" class="node"><title>Application</title>
<polygon fill="none" stroke="black" points="20.5,-88.5 20.5,-134.5 137.5,-134.5 137.5,-88.5 20.5,-88.5"/>
<text text-anchor="middle" x="79" y="-119.3" font-family="Times,serif" font-size="14.00">Dependencies</text>
<polyline fill="none" stroke="black" points="20.5,-111.5 137.5,-111.5 "/>
<text text-anchor="middle" x="79" y="-96.3" font-family="Times,serif" font-size="14.00">Application</text>
</g>
<!-- Application&#45;&gt;Kernel -->
<g id="edge1" class="edge"><title>Application&#45;&gt;Kernel</title>
<path fill="none" stroke="black" d="M79,-88.2559C79,-80.1817 79,-70.962 79,-62.4888"/>
<polygon fill="black" stroke="black" points="82.5001,-62.2975 79,-52.2976 75.5001,-62.2976 82.5001,-62.2975"/>
</g>
</g>
</svg>
