<?xml version="1.0" encoding="UTF-8" standalone="no"?>
<!DOCTYPE svg PUBLIC "-//W3C//DTD SVG 1.1//EN"
 "http://www.w3.org/Graphics/SVG/1.1/DTD/svg11.dtd">
<!-- Generated by graphviz version 2.38.0 (20140413.2041)
 -->
<!-- Title: D Pages: 1 -->
<svg width="336pt" height="260pt"
 viewBox="0.00 0.00 336.00 260.00" xmlns="http://www.w3.org/2000/svg" xmlns:xlink="http://www.w3.org/1999/xlink">
<g id="graph0" class="graph" transform="scale(1 1) rotate(0) translate(4 256)">
<title>D</title>
<polygon fill="white" stroke="none" points="-4,4 -4,-256 332,-256 332,4 -4,4"/>
<g id="clust1" class="cluster"><title>cluster_p</title>
<polygon fill="none" stroke="black" points="8,-8 8,-244 320,-244 320,-8 8,-8"/>
<text text-anchor="middle" x="164" y="-228.8" font-family="Times,serif" font-size="14.00">Physical Machine</text>
</g>
<g id="clust2" class="cluster"><title>cluster_v</title>
<polygon fill="none" stroke="black" points="89,-16 89,-213 312,-213 312,-16 89,-16"/>
<text text-anchor="middle" x="200.5" y="-197.8" font-family="Times,serif" font-size="14.00">Virtual Machine</text>
</g>
<g id="clust3" class="cluster"><title>cluster_v2</title>
<polygon fill="none" stroke="black" points="170,-24 170,-182 304,-182 304,-24 170,-24"/>
<text text-anchor="middle" x="237" y="-166.8" font-family="Times,serif" font-size="14.00">Virtual Machine</text>
</g>
<!-- Kernel_p -->
<g id="node1" class="node"><title>Kernel_p</title>
<polygon fill="none" stroke="black" points="79.5,-145.5 16.5,-145.5 16.5,-109.5 79.5,-109.5 79.5,-145.5"/>
<text text-anchor="middle" x="48" y="-123.8" font-family="Times,serif" font-size="14.00">Kernel</text>
</g>
<!-- Kernel_v -->
<g id="node2" class="node"><title>Kernel_v</title>
<polygon fill="none" stroke="black" points="160.5,-145.5 97.5,-145.5 97.5,-109.5 160.5,-109.5 160.5,-145.5"/>
<text text-anchor="middle" x="129" y="-123.8" font-family="Times,serif" font-size="14.00">Kernel</text>
</g>
<!-- Kernel -->
<g id="node3" class="node"><title>Kernel</title>
<polygon fill="none" stroke="black" points="268.5,-68 205.5,-68 205.5,-32 268.5,-32 268.5,-68"/>
<text text-anchor="middle" x="237" y="-46.3" font-family="Times,serif" font-size="14.00">Kernel</text>
</g>
<!-- Application -->
<g id="node4" class="node"><title>Application</title>
<polygon fill="none" stroke="black" points="178.5,-104.5 178.5,-150.5 295.5,-150.5 295.5,-104.5 178.5,-104.5"/>
<text text-anchor="middle" x="237" y="-135.3" font-family="Times,serif" font-size="14.00">Dependencies</text>
<polyline fill="none" stroke="black" points="178.5,-127.5 295.5,-127.5 "/>
<text text-anchor="middle" x="237" y="-112.3" font-family="Times,serif" font-size="14.00">Application</text>
</g>
<!-- Application&#45;&gt;Kernel -->
<g id="edge1" class="edge"><title>Application&#45;&gt;Kernel</title>
<path fill="none" stroke="black" d="M237,-104.256C237,-96.1817 237,-86.962 237,-78.4888"/>
<polygon fill="black" stroke="black" points="240.5,-78.2975 237,-68.2976 233.5,-78.2976 240.5,-78.2975"/>
</g>
</g>
</svg>
