<?xml version="1.0" encoding="UTF-8" standalone="no"?>
<!DOCTYPE svg PUBLIC "-//W3C//DTD SVG 1.1//EN"
 "http://www.w3.org/Graphics/SVG/1.1/DTD/svg11.dtd">
<!-- Generated by graphviz version 2.38.0 (20140413.2041)
 -->
<!-- Title: D Pages: 1 -->
<svg width="247pt" height="221pt"
 viewBox="0.00 0.00 247.00 221.00" xmlns="http://www.w3.org/2000/svg" xmlns:xlink="http://www.w3.org/1999/xlink">
<g id="graph0" class="graph" transform="scale(1 1) rotate(0) translate(4 217)">
<title>D</title>
<polygon fill="white" stroke="none" points="-4,4 -4,-217 243,-217 243,4 -4,4"/>
<g id="clust1" class="cluster"><title>cluster_p</title>
<polygon fill="none" stroke="black" points="8,-8 8,-205 231,-205 231,-8 8,-8"/>
<text text-anchor="middle" x="119.5" y="-189.8" font-family="Times,serif" font-size="14.00">Physical Machine</text>
</g>
<g id="clust2" class="cluster"><title>cluster_v</title>
<polygon fill="none" stroke="black" points="89,-16 89,-174 223,-174 223,-16 89,-16"/>
<text text-anchor="middle" x="156" y="-158.8" font-family="Times,serif" font-size="14.00">Virtual Machine</text>
</g>
<!-- Kernel_p -->
<g id="node1" class="node"><title>Kernel_p</title>
<polygon fill="none" stroke="black" points="79.5,-137.5 16.5,-137.5 16.5,-101.5 79.5,-101.5 79.5,-137.5"/>
<text text-anchor="middle" x="48" y="-115.8" font-family="Times,serif" font-size="14.00">Kernel</text>
</g>
<!-- Kernel -->
<g id="node2" class="node"><title>Kernel</title>
<polygon fill="none" stroke="black" points="187.5,-60 124.5,-60 124.5,-24 187.5,-24 187.5,-60"/>
<text text-anchor="middle" x="156" y="-38.3" font-family="Times,serif" font-size="14.00">Kernel</text>
</g>
<!-- Application -->
<g id="node3" class="node"><title>Application</title>
<polygon fill="none" stroke="black" points="97.5,-96.5 97.5,-142.5 214.5,-142.5 214.5,-96.5 97.5,-96.5"/>
<text text-anchor="middle" x="156" y="-127.3" font-family="Times,serif" font-size="14.00">Dependencies</text>
<polyline fill="none" stroke="black" points="97.5,-119.5 214.5,-119.5 "/>
<text text-anchor="middle" x="156" y="-104.3" font-family="Times,serif" font-size="14.00">Application</text>
</g>
<!-- Application&#45;&gt;Kernel -->
<g id="edge1" class="edge"><title>Application&#45;&gt;Kernel</title>
<path fill="none" stroke="black" d="M156,-96.2559C156,-88.1817 156,-78.962 156,-70.4888"/>
<polygon fill="black" stroke="black" points="159.5,-70.2975 156,-60.2976 152.5,-70.2976 159.5,-70.2975"/>
</g>
</g>
</svg>
